# xmcd
#
# Track frame offsets:
#	150
#	11249
#	26700
#	42075
#	55875
#	73875
#	89400
#	103350
#	118050
#	136650
#	152250
#	163350
#	178800
#	194175
#	207975
#	225975
#	241500
#	255450
#	270150
#	288750
#	304350
#
# Disc length: 4267 seconds
#
# Revision: 1
# Processed by: cddbd v1.5.2PL0 Copyright (c) Steve Scherf et al.
# Submitted via: audiograbber 1.83.01
#
DISCID=2910a915
DTITLE=Various Country - Country Hits Today 9812-C
DYEAR=1998
DGENRE=Country
TTITLE0=Strait, George - We Really Shouldn't Be Doin' This
TTITLE1=Yearwood, Trisha - Where Your Road Leads
TTITLE2=Jackson, Alan - Right On The Money
TTITLE3=Brooks and Dunn - Husbands and Wives
TTITLE4=Hill, Faith - Let Me Let Go
TTITLE5=Carter, Deana - Absence Of The Heart
TTITLE6=Gill, Vince - Kindly Keep It Country
TTITLE7=McBride, Martina - Wrong Again
TTITLE8=Montgomery, John Michael - Hold On To Me
TTITLE9=Chesney, Kenny - I Will Stand
TTITLE10=Strait, George - We Really Shouldn't Be Doin' This (vocal)
TTITLE11=Yearwood, Trisha - Where Your Road Leads (vocal)
TTITLE12=Jackson, Alan - Right On The Money (vocal)
TTITLE13=Brooks and Dunn - Husbands and Wives (vocal)
TTITLE14=Hill, Faith - Let Me Let Go (vocal)
TTITLE15=Carter, Deana - Absence Of The Heart (vocal)
TTITLE16=Gill, Vince - Kindly Keep It Country (vocal)
TTITLE17=McBride, Martina - Wrong Again (vocal)
TTITLE18=Montgomery, John Michael - Hold On To Me (vocal)
TTITLE19=Chesney, Kenny - I Will Stand (vocal)
TTITLE20=Yearwood, Trisha and Garth Brooks - Where Your Road Leads (Duet)
EXTD=
EXTT0=
EXTT1=
EXTT2=
EXTT3=
EXTT4=
EXTT5=
EXTT6=
EXTT7=
EXTT8=
EXTT9=
EXTT10=
EXTT11=
EXTT12=
EXTT13=
EXTT14=
EXTT15=
EXTT16=
EXTT17=
EXTT18=
EXTT19=
EXTT20=
PLAYORDER=
